<?xml version="1.0" encoding="UTF-8" standalone="no"?>
<!DOCTYPE svg PUBLIC "-//W3C//DTD SVG 1.1//EN"
 "http://www.w3.org/Graphics/SVG/1.1/DTD/svg11.dtd">
<!-- Generated by graphviz version 2.40.1 (20161225.0304)
 -->
<!-- Title: G Pages: 1 -->
<svg width="252pt" height="774pt"
 viewBox="0.00 0.00 251.57 774.00" xmlns="http://www.w3.org/2000/svg" xmlns:xlink="http://www.w3.org/1999/xlink">
<g id="graph0" class="graph" transform="scale(1 1) rotate(0) translate(4 770)">
<title>G</title>
<polygon fill="#ffffff" stroke="transparent" points="-4,4 -4,-770 247.5693,-770 247.5693,4 -4,4"/>
<!-- 112431747256 -->
<g id="node1" class="node">
<title>112431747256</title>
<polygon fill="none" stroke="#000000" points="0,-648.5 0,-692.5 243.5693,-692.5 243.5693,-648.5 0,-648.5"/>
<text text-anchor="middle" x="52.126" y="-666.3" font-family="Times,serif" font-size="14.00" fill="#000000">dense_1: Dense</text>
<polyline fill="none" stroke="#000000" points="104.252,-648.5 104.252,-692.5 "/>
<text text-anchor="middle" x="132.0864" y="-677.3" font-family="Times,serif" font-size="14.00" fill="#000000">input:</text>
<polyline fill="none" stroke="#000000" points="104.252,-670.5 159.9209,-670.5 "/>
<text text-anchor="middle" x="132.0864" y="-655.3" font-family="Times,serif" font-size="14.00" fill="#000000">output:</text>
<polyline fill="none" stroke="#000000" points="159.9209,-648.5 159.9209,-692.5 "/>
<text text-anchor="middle" x="201.7451" y="-677.3" font-family="Times,serif" font-size="14.00" fill="#000000">(None, 4)</text>
<polyline fill="none" stroke="#000000" points="159.9209,-670.5 243.5693,-670.5 "/>
<text text-anchor="middle" x="201.7451" y="-655.3" font-family="Times,serif" font-size="14.00" fill="#000000">(None, 200)</text>
</g>
<!-- 112431749832 -->
<g id="node2" class="node">
<title>112431749832</title>
<polygon fill="none" stroke="#000000" points="0,-567.5 0,-611.5 243.5693,-611.5 243.5693,-567.5 0,-567.5"/>
<text text-anchor="middle" x="52.126" y="-585.3" font-family="Times,serif" font-size="14.00" fill="#000000">dense_2: Dense</text>
<polyline fill="none" stroke="#000000" points="104.252,-567.5 104.252,-611.5 "/>
<text text-anchor="middle" x="132.0864" y="-596.3" font-family="Times,serif" font-size="14.00" fill="#000000">input:</text>
<polyline fill="none" stroke="#000000" points="104.252,-589.5 159.9209,-589.5 "/>
<text text-anchor="middle" x="132.0864" y="-574.3" font-family="Times,serif" font-size="14.00" fill="#000000">output:</text>
<polyline fill="none" stroke="#000000" points="159.9209,-567.5 159.9209,-611.5 "/>
<text text-anchor="middle" x="201.7451" y="-596.3" font-family="Times,serif" font-size="14.00" fill="#000000">(None, 200)</text>
<polyline fill="none" stroke="#000000" points="159.9209,-589.5 243.5693,-589.5 "/>
<text text-anchor="middle" x="201.7451" y="-574.3" font-family="Times,serif" font-size="14.00" fill="#000000">(None, 100)</text>
</g>
<!-- 112431747256&#45;&gt;112431749832 -->
<g id="edge2" class="edge">
<title>112431747256&#45;&gt;112431749832</title>
<path fill="none" stroke="#000000" d="M121.7847,-648.3664C121.7847,-640.1516 121.7847,-630.6579 121.7847,-621.7252"/>
<polygon fill="#000000" stroke="#000000" points="125.2848,-621.6068 121.7847,-611.6068 118.2848,-621.6069 125.2848,-621.6068"/>
</g>
<!-- 4460116568 -->
<g id="node3" class="node">
<title>4460116568</title>
<polygon fill="none" stroke="#000000" points="0,-486.5 0,-530.5 243.5693,-530.5 243.5693,-486.5 0,-486.5"/>
<text text-anchor="middle" x="52.126" y="-504.3" font-family="Times,serif" font-size="14.00" fill="#000000">dense_3: Dense</text>
<polyline fill="none" stroke="#000000" points="104.252,-486.5 104.252,-530.5 "/>
<text text-anchor="middle" x="132.0864" y="-515.3" font-family="Times,serif" font-size="14.00" fill="#000000">input:</text>
<polyline fill="none" stroke="#000000" points="104.252,-508.5 159.9209,-508.5 "/>
<text text-anchor="middle" x="132.0864" y="-493.3" font-family="Times,serif" font-size="14.00" fill="#000000">output:</text>
<polyline fill="none" stroke="#000000" points="159.9209,-486.5 159.9209,-530.5 "/>
<text text-anchor="middle" x="201.7451" y="-515.3" font-family="Times,serif" font-size="14.00" fill="#000000">(None, 100)</text>
<polyline fill="none" stroke="#000000" points="159.9209,-508.5 243.5693,-508.5 "/>
<text text-anchor="middle" x="201.7451" y="-493.3" font-family="Times,serif" font-size="14.00" fill="#000000">(None, 90)</text>
</g>
<!-- 112431749832&#45;&gt;4460116568 -->
<g id="edge3" class="edge">
<title>112431749832&#45;&gt;4460116568</title>
<path fill="none" stroke="#000000" d="M121.7847,-567.3664C121.7847,-559.1516 121.7847,-549.6579 121.7847,-540.7252"/>
<polygon fill="#000000" stroke="#000000" points="125.2848,-540.6068 121.7847,-530.6068 118.2848,-540.6069 125.2848,-540.6068"/>
</g>
<!-- 112431749944 -->
<g id="node4" class="node">
<title>112431749944</title>
<polygon fill="none" stroke="#000000" points="3.5,-405.5 3.5,-449.5 240.0693,-449.5 240.0693,-405.5 3.5,-405.5"/>
<text text-anchor="middle" x="55.626" y="-423.3" font-family="Times,serif" font-size="14.00" fill="#000000">dense_4: Dense</text>
<polyline fill="none" stroke="#000000" points="107.752,-405.5 107.752,-449.5 "/>
<text text-anchor="middle" x="135.5864" y="-434.3" font-family="Times,serif" font-size="14.00" fill="#000000">input:</text>
<polyline fill="none" stroke="#000000" points="107.752,-427.5 163.4209,-427.5 "/>
<text text-anchor="middle" x="135.5864" y="-412.3" font-family="Times,serif" font-size="14.00" fill="#000000">output:</text>
<polyline fill="none" stroke="#000000" points="163.4209,-405.5 163.4209,-449.5 "/>
<text text-anchor="middle" x="201.7451" y="-434.3" font-family="Times,serif" font-size="14.00" fill="#000000">(None, 90)</text>
<polyline fill="none" stroke="#000000" points="163.4209,-427.5 240.0693,-427.5 "/>
<text text-anchor="middle" x="201.7451" y="-412.3" font-family="Times,serif" font-size="14.00" fill="#000000">(None, 80)</text>
</g>
<!-- 4460116568&#45;&gt;112431749944 -->
<g id="edge4" class="edge">
<title>4460116568&#45;&gt;112431749944</title>
<path fill="none" stroke="#000000" d="M121.7847,-486.3664C121.7847,-478.1516 121.7847,-468.6579 121.7847,-459.7252"/>
<polygon fill="#000000" stroke="#000000" points="125.2848,-459.6068 121.7847,-449.6068 118.2848,-459.6069 125.2848,-459.6068"/>
</g>
<!-- 4460282712 -->
<g id="node5" class="node">
<title>4460282712</title>
<polygon fill="none" stroke="#000000" points="3.5,-324.5 3.5,-368.5 240.0693,-368.5 240.0693,-324.5 3.5,-324.5"/>
<text text-anchor="middle" x="55.626" y="-342.3" font-family="Times,serif" font-size="14.00" fill="#000000">dense_5: Dense</text>
<polyline fill="none" stroke="#000000" points="107.752,-324.5 107.752,-368.5 "/>
<text text-anchor="middle" x="135.5864" y="-353.3" font-family="Times,serif" font-size="14.00" fill="#000000">input:</text>
<polyline fill="none" stroke="#000000" points="107.752,-346.5 163.4209,-346.5 "/>
<text text-anchor="middle" x="135.5864" y="-331.3" font-family="Times,serif" font-size="14.00" fill="#000000">output:</text>
<polyline fill="none" stroke="#000000" points="163.4209,-324.5 163.4209,-368.5 "/>
<text text-anchor="middle" x="201.7451" y="-353.3" font-family="Times,serif" font-size="14.00" fill="#000000">(None, 80)</text>
<polyline fill="none" stroke="#000000" points="163.4209,-346.5 240.0693,-346.5 "/>
<text text-anchor="middle" x="201.7451" y="-331.3" font-family="Times,serif" font-size="14.00" fill="#000000">(None, 70)</text>
</g>
<!-- 112431749944&#45;&gt;4460282712 -->
<g id="edge5" class="edge">
<title>112431749944&#45;&gt;4460282712</title>
<path fill="none" stroke="#000000" d="M121.7847,-405.3664C121.7847,-397.1516 121.7847,-387.6579 121.7847,-378.7252"/>
<polygon fill="#000000" stroke="#000000" points="125.2848,-378.6068 121.7847,-368.6068 118.2848,-378.6069 125.2848,-378.6068"/>
</g>
<!-- 4460339272 -->
<g id="node6" class="node">
<title>4460339272</title>
<polygon fill="none" stroke="#000000" points="3.5,-243.5 3.5,-287.5 240.0693,-287.5 240.0693,-243.5 3.5,-243.5"/>
<text text-anchor="middle" x="55.626" y="-261.3" font-family="Times,serif" font-size="14.00" fill="#000000">dense_6: Dense</text>
<polyline fill="none" stroke="#000000" points="107.752,-243.5 107.752,-287.5 "/>
<text text-anchor="middle" x="135.5864" y="-272.3" font-family="Times,serif" font-size="14.00" fill="#000000">input:</text>
<polyline fill="none" stroke="#000000" points="107.752,-265.5 163.4209,-265.5 "/>
<text text-anchor="middle" x="135.5864" y="-250.3" font-family="Times,serif" font-size="14.00" fill="#000000">output:</text>
<polyline fill="none" stroke="#000000" points="163.4209,-243.5 163.4209,-287.5 "/>
<text text-anchor="middle" x="201.7451" y="-272.3" font-family="Times,serif" font-size="14.00" fill="#000000">(None, 70)</text>
<polyline fill="none" stroke="#000000" points="163.4209,-265.5 240.0693,-265.5 "/>
<text text-anchor="middle" x="201.7451" y="-250.3" font-family="Times,serif" font-size="14.00" fill="#000000">(None, 60)</text>
</g>
<!-- 4460282712&#45;&gt;4460339272 -->
<g id="edge6" class="edge">
<title>4460282712&#45;&gt;4460339272</title>
<path fill="none" stroke="#000000" d="M121.7847,-324.3664C121.7847,-316.1516 121.7847,-306.6579 121.7847,-297.7252"/>
<polygon fill="#000000" stroke="#000000" points="125.2848,-297.6068 121.7847,-287.6068 118.2848,-297.6069 125.2848,-297.6068"/>
</g>
<!-- 4918186896 -->
<g id="node7" class="node">
<title>4918186896</title>
<polygon fill="none" stroke="#000000" points="3.5,-162.5 3.5,-206.5 240.0693,-206.5 240.0693,-162.5 3.5,-162.5"/>
<text text-anchor="middle" x="55.626" y="-180.3" font-family="Times,serif" font-size="14.00" fill="#000000">dense_7: Dense</text>
<polyline fill="none" stroke="#000000" points="107.752,-162.5 107.752,-206.5 "/>
<text text-anchor="middle" x="135.5864" y="-191.3" font-family="Times,serif" font-size="14.00" fill="#000000">input:</text>
<polyline fill="none" stroke="#000000" points="107.752,-184.5 163.4209,-184.5 "/>
<text text-anchor="middle" x="135.5864" y="-169.3" font-family="Times,serif" font-size="14.00" fill="#000000">output:</text>
<polyline fill="none" stroke="#000000" points="163.4209,-162.5 163.4209,-206.5 "/>
<text text-anchor="middle" x="201.7451" y="-191.3" font-family="Times,serif" font-size="14.00" fill="#000000">(None, 60)</text>
<polyline fill="none" stroke="#000000" points="163.4209,-184.5 240.0693,-184.5 "/>
<text text-anchor="middle" x="201.7451" y="-169.3" font-family="Times,serif" font-size="14.00" fill="#000000">(None, 50)</text>
</g>
<!-- 4460339272&#45;&gt;4918186896 -->
<g id="edge7" class="edge">
<title>4460339272&#45;&gt;4918186896</title>
<path fill="none" stroke="#000000" d="M121.7847,-243.3664C121.7847,-235.1516 121.7847,-225.6579 121.7847,-216.7252"/>
<polygon fill="#000000" stroke="#000000" points="125.2848,-216.6068 121.7847,-206.6068 118.2848,-216.6069 125.2848,-216.6068"/>
</g>
<!-- 4918241488 -->
<g id="node8" class="node">
<title>4918241488</title>
<polygon fill="none" stroke="#000000" points="3.5,-81.5 3.5,-125.5 240.0693,-125.5 240.0693,-81.5 3.5,-81.5"/>
<text text-anchor="middle" x="55.626" y="-99.3" font-family="Times,serif" font-size="14.00" fill="#000000">dense_8: Dense</text>
<polyline fill="none" stroke="#000000" points="107.752,-81.5 107.752,-125.5 "/>
<text text-anchor="middle" x="135.5864" y="-110.3" font-family="Times,serif" font-size="14.00" fill="#000000">input:</text>
<polyline fill="none" stroke="#000000" points="107.752,-103.5 163.4209,-103.5 "/>
<text text-anchor="middle" x="135.5864" y="-88.3" font-family="Times,serif" font-size="14.00" fill="#000000">output:</text>
<polyline fill="none" stroke="#000000" points="163.4209,-81.5 163.4209,-125.5 "/>
<text text-anchor="middle" x="201.7451" y="-110.3" font-family="Times,serif" font-size="14.00" fill="#000000">(None, 50)</text>
<polyline fill="none" stroke="#000000" points="163.4209,-103.5 240.0693,-103.5 "/>
<text text-anchor="middle" x="201.7451" y="-88.3" font-family="Times,serif" font-size="14.00" fill="#000000">(None, 40)</text>
</g>
<!-- 4918186896&#45;&gt;4918241488 -->
<g id="edge8" class="edge">
<title>4918186896&#45;&gt;4918241488</title>
<path fill="none" stroke="#000000" d="M121.7847,-162.3664C121.7847,-154.1516 121.7847,-144.6579 121.7847,-135.7252"/>
<polygon fill="#000000" stroke="#000000" points="125.2848,-135.6068 121.7847,-125.6068 118.2848,-135.6069 125.2848,-135.6068"/>
</g>
<!-- 4918362632 -->
<g id="node9" class="node">
<title>4918362632</title>
<polygon fill="none" stroke="#000000" points="3.5,-.5 3.5,-44.5 240.0693,-44.5 240.0693,-.5 3.5,-.5"/>
<text text-anchor="middle" x="55.626" y="-18.3" font-family="Times,serif" font-size="14.00" fill="#000000">dense_9: Dense</text>
<polyline fill="none" stroke="#000000" points="107.752,-.5 107.752,-44.5 "/>
<text text-anchor="middle" x="135.5864" y="-29.3" font-family="Times,serif" font-size="14.00" fill="#000000">input:</text>
<polyline fill="none" stroke="#000000" points="107.752,-22.5 163.4209,-22.5 "/>
<text text-anchor="middle" x="135.5864" y="-7.3" font-family="Times,serif" font-size="14.00" fill="#000000">output:</text>
<polyline fill="none" stroke="#000000" points="163.4209,-.5 163.4209,-44.5 "/>
<text text-anchor="middle" x="201.7451" y="-29.3" font-family="Times,serif" font-size="14.00" fill="#000000">(None, 40)</text>
<polyline fill="none" stroke="#000000" points="163.4209,-22.5 240.0693,-22.5 "/>
<text text-anchor="middle" x="201.7451" y="-7.3" font-family="Times,serif" font-size="14.00" fill="#000000">(None, 36)</text>
</g>
<!-- 4918241488&#45;&gt;4918362632 -->
<g id="edge9" class="edge">
<title>4918241488&#45;&gt;4918362632</title>
<path fill="none" stroke="#000000" d="M121.7847,-81.3664C121.7847,-73.1516 121.7847,-63.6579 121.7847,-54.7252"/>
<polygon fill="#000000" stroke="#000000" points="125.2848,-54.6068 121.7847,-44.6068 118.2848,-54.6069 125.2848,-54.6068"/>
</g>
<!-- 112431749216 -->
<g id="node10" class="node">
<title>112431749216</title>
<polygon fill="none" stroke="#000000" points="72.041,-729.5 72.041,-765.5 171.5283,-765.5 171.5283,-729.5 72.041,-729.5"/>
<text text-anchor="middle" x="121.7847" y="-743.3" font-family="Times,serif" font-size="14.00" fill="#000000">112431749216</text>
</g>
<!-- 112431749216&#45;&gt;112431747256 -->
<g id="edge1" class="edge">
<title>112431749216&#45;&gt;112431747256</title>
<path fill="none" stroke="#000000" d="M121.7847,-729.2521C121.7847,-721.3888 121.7847,-711.9498 121.7847,-702.9612"/>
<polygon fill="#000000" stroke="#000000" points="125.2848,-702.7376 121.7847,-692.7377 118.2848,-702.7377 125.2848,-702.7376"/>
</g>
</g>
</svg>
