<?xml version="1.0" encoding="UTF-8" standalone="no"?>
<!DOCTYPE svg PUBLIC "-//W3C//DTD SVG 1.1//EN"
 "http://www.w3.org/Graphics/SVG/1.1/DTD/svg11.dtd">
<!-- Generated by graphviz version 2.40.1 (20161225.0304)
 -->
<!-- Title: G Pages: 1 -->
<svg width="275pt" height="1017pt"
 viewBox="0.00 0.00 274.92 1017.00" xmlns="http://www.w3.org/2000/svg" xmlns:xlink="http://www.w3.org/1999/xlink">
<g id="graph0" class="graph" transform="scale(1 1) rotate(0) translate(4 1013)">
<title>G</title>
<polygon fill="#ffffff" stroke="transparent" points="-4,4 -4,-1013 270.9209,-1013 270.9209,4 -4,4"/>
<!-- 112499316552 -->
<g id="node1" class="node">
<title>112499316552</title>
<polygon fill="none" stroke="#000000" points="11.6758,-891.5 11.6758,-935.5 255.2451,-935.5 255.2451,-891.5 11.6758,-891.5"/>
<text text-anchor="middle" x="63.8018" y="-909.3" font-family="Times,serif" font-size="14.00" fill="#000000">dense_1: Dense</text>
<polyline fill="none" stroke="#000000" points="115.9277,-891.5 115.9277,-935.5 "/>
<text text-anchor="middle" x="143.7622" y="-920.3" font-family="Times,serif" font-size="14.00" fill="#000000">input:</text>
<polyline fill="none" stroke="#000000" points="115.9277,-913.5 171.5967,-913.5 "/>
<text text-anchor="middle" x="143.7622" y="-898.3" font-family="Times,serif" font-size="14.00" fill="#000000">output:</text>
<polyline fill="none" stroke="#000000" points="171.5967,-891.5 171.5967,-935.5 "/>
<text text-anchor="middle" x="213.4209" y="-920.3" font-family="Times,serif" font-size="14.00" fill="#000000">(None, 5)</text>
<polyline fill="none" stroke="#000000" points="171.5967,-913.5 255.2451,-913.5 "/>
<text text-anchor="middle" x="213.4209" y="-898.3" font-family="Times,serif" font-size="14.00" fill="#000000">(None, 200)</text>
</g>
<!-- 112499317448 -->
<g id="node2" class="node">
<title>112499317448</title>
<polygon fill="none" stroke="#000000" points="11.6758,-810.5 11.6758,-854.5 255.2451,-854.5 255.2451,-810.5 11.6758,-810.5"/>
<text text-anchor="middle" x="63.8018" y="-828.3" font-family="Times,serif" font-size="14.00" fill="#000000">dense_2: Dense</text>
<polyline fill="none" stroke="#000000" points="115.9277,-810.5 115.9277,-854.5 "/>
<text text-anchor="middle" x="143.7622" y="-839.3" font-family="Times,serif" font-size="14.00" fill="#000000">input:</text>
<polyline fill="none" stroke="#000000" points="115.9277,-832.5 171.5967,-832.5 "/>
<text text-anchor="middle" x="143.7622" y="-817.3" font-family="Times,serif" font-size="14.00" fill="#000000">output:</text>
<polyline fill="none" stroke="#000000" points="171.5967,-810.5 171.5967,-854.5 "/>
<text text-anchor="middle" x="213.4209" y="-839.3" font-family="Times,serif" font-size="14.00" fill="#000000">(None, 200)</text>
<polyline fill="none" stroke="#000000" points="171.5967,-832.5 255.2451,-832.5 "/>
<text text-anchor="middle" x="213.4209" y="-817.3" font-family="Times,serif" font-size="14.00" fill="#000000">(None, 100)</text>
</g>
<!-- 112499316552&#45;&gt;112499317448 -->
<g id="edge2" class="edge">
<title>112499316552&#45;&gt;112499317448</title>
<path fill="none" stroke="#000000" d="M133.4604,-891.3664C133.4604,-883.1516 133.4604,-873.6579 133.4604,-864.7252"/>
<polygon fill="#000000" stroke="#000000" points="136.9605,-864.6068 133.4604,-854.6068 129.9605,-864.6069 136.9605,-864.6068"/>
</g>
<!-- 112499654496 -->
<g id="node3" class="node">
<title>112499654496</title>
<polygon fill="none" stroke="#000000" points="0,-729.5 0,-773.5 266.9209,-773.5 266.9209,-729.5 0,-729.5"/>
<text text-anchor="middle" x="63.8018" y="-747.3" font-family="Times,serif" font-size="14.00" fill="#000000">dropout_1: Dropout</text>
<polyline fill="none" stroke="#000000" points="127.6035,-729.5 127.6035,-773.5 "/>
<text text-anchor="middle" x="155.438" y="-758.3" font-family="Times,serif" font-size="14.00" fill="#000000">input:</text>
<polyline fill="none" stroke="#000000" points="127.6035,-751.5 183.2725,-751.5 "/>
<text text-anchor="middle" x="155.438" y="-736.3" font-family="Times,serif" font-size="14.00" fill="#000000">output:</text>
<polyline fill="none" stroke="#000000" points="183.2725,-729.5 183.2725,-773.5 "/>
<text text-anchor="middle" x="225.0967" y="-758.3" font-family="Times,serif" font-size="14.00" fill="#000000">(None, 100)</text>
<polyline fill="none" stroke="#000000" points="183.2725,-751.5 266.9209,-751.5 "/>
<text text-anchor="middle" x="225.0967" y="-736.3" font-family="Times,serif" font-size="14.00" fill="#000000">(None, 100)</text>
</g>
<!-- 112499317448&#45;&gt;112499654496 -->
<g id="edge3" class="edge">
<title>112499317448&#45;&gt;112499654496</title>
<path fill="none" stroke="#000000" d="M133.4604,-810.3664C133.4604,-802.1516 133.4604,-792.6579 133.4604,-783.7252"/>
<polygon fill="#000000" stroke="#000000" points="136.9605,-783.6068 133.4604,-773.6068 129.9605,-783.6069 136.9605,-783.6068"/>
</g>
<!-- 112499653488 -->
<g id="node4" class="node">
<title>112499653488</title>
<polygon fill="none" stroke="#000000" points="11.6758,-648.5 11.6758,-692.5 255.2451,-692.5 255.2451,-648.5 11.6758,-648.5"/>
<text text-anchor="middle" x="63.8018" y="-666.3" font-family="Times,serif" font-size="14.00" fill="#000000">dense_3: Dense</text>
<polyline fill="none" stroke="#000000" points="115.9277,-648.5 115.9277,-692.5 "/>
<text text-anchor="middle" x="143.7622" y="-677.3" font-family="Times,serif" font-size="14.00" fill="#000000">input:</text>
<polyline fill="none" stroke="#000000" points="115.9277,-670.5 171.5967,-670.5 "/>
<text text-anchor="middle" x="143.7622" y="-655.3" font-family="Times,serif" font-size="14.00" fill="#000000">output:</text>
<polyline fill="none" stroke="#000000" points="171.5967,-648.5 171.5967,-692.5 "/>
<text text-anchor="middle" x="213.4209" y="-677.3" font-family="Times,serif" font-size="14.00" fill="#000000">(None, 100)</text>
<polyline fill="none" stroke="#000000" points="171.5967,-670.5 255.2451,-670.5 "/>
<text text-anchor="middle" x="213.4209" y="-655.3" font-family="Times,serif" font-size="14.00" fill="#000000">(None, 90)</text>
</g>
<!-- 112499654496&#45;&gt;112499653488 -->
<g id="edge4" class="edge">
<title>112499654496&#45;&gt;112499653488</title>
<path fill="none" stroke="#000000" d="M133.4604,-729.3664C133.4604,-721.1516 133.4604,-711.6579 133.4604,-702.7252"/>
<polygon fill="#000000" stroke="#000000" points="136.9605,-702.6068 133.4604,-692.6068 129.9605,-702.6069 136.9605,-702.6068"/>
</g>
<!-- 112499317560 -->
<g id="node5" class="node">
<title>112499317560</title>
<polygon fill="none" stroke="#000000" points="15.1758,-567.5 15.1758,-611.5 251.7451,-611.5 251.7451,-567.5 15.1758,-567.5"/>
<text text-anchor="middle" x="67.3018" y="-585.3" font-family="Times,serif" font-size="14.00" fill="#000000">dense_4: Dense</text>
<polyline fill="none" stroke="#000000" points="119.4277,-567.5 119.4277,-611.5 "/>
<text text-anchor="middle" x="147.2622" y="-596.3" font-family="Times,serif" font-size="14.00" fill="#000000">input:</text>
<polyline fill="none" stroke="#000000" points="119.4277,-589.5 175.0967,-589.5 "/>
<text text-anchor="middle" x="147.2622" y="-574.3" font-family="Times,serif" font-size="14.00" fill="#000000">output:</text>
<polyline fill="none" stroke="#000000" points="175.0967,-567.5 175.0967,-611.5 "/>
<text text-anchor="middle" x="213.4209" y="-596.3" font-family="Times,serif" font-size="14.00" fill="#000000">(None, 90)</text>
<polyline fill="none" stroke="#000000" points="175.0967,-589.5 251.7451,-589.5 "/>
<text text-anchor="middle" x="213.4209" y="-574.3" font-family="Times,serif" font-size="14.00" fill="#000000">(None, 80)</text>
</g>
<!-- 112499653488&#45;&gt;112499317560 -->
<g id="edge5" class="edge">
<title>112499653488&#45;&gt;112499317560</title>
<path fill="none" stroke="#000000" d="M133.4604,-648.3664C133.4604,-640.1516 133.4604,-630.6579 133.4604,-621.7252"/>
<polygon fill="#000000" stroke="#000000" points="136.9605,-621.6068 133.4604,-611.6068 129.9605,-621.6069 136.9605,-621.6068"/>
</g>
<!-- 112507162696 -->
<g id="node6" class="node">
<title>112507162696</title>
<polygon fill="none" stroke="#000000" points="3.5,-486.5 3.5,-530.5 263.4209,-530.5 263.4209,-486.5 3.5,-486.5"/>
<text text-anchor="middle" x="67.3018" y="-504.3" font-family="Times,serif" font-size="14.00" fill="#000000">dropout_2: Dropout</text>
<polyline fill="none" stroke="#000000" points="131.1035,-486.5 131.1035,-530.5 "/>
<text text-anchor="middle" x="158.938" y="-515.3" font-family="Times,serif" font-size="14.00" fill="#000000">input:</text>
<polyline fill="none" stroke="#000000" points="131.1035,-508.5 186.7725,-508.5 "/>
<text text-anchor="middle" x="158.938" y="-493.3" font-family="Times,serif" font-size="14.00" fill="#000000">output:</text>
<polyline fill="none" stroke="#000000" points="186.7725,-486.5 186.7725,-530.5 "/>
<text text-anchor="middle" x="225.0967" y="-515.3" font-family="Times,serif" font-size="14.00" fill="#000000">(None, 80)</text>
<polyline fill="none" stroke="#000000" points="186.7725,-508.5 263.4209,-508.5 "/>
<text text-anchor="middle" x="225.0967" y="-493.3" font-family="Times,serif" font-size="14.00" fill="#000000">(None, 80)</text>
</g>
<!-- 112499317560&#45;&gt;112507162696 -->
<g id="edge6" class="edge">
<title>112499317560&#45;&gt;112507162696</title>
<path fill="none" stroke="#000000" d="M133.4604,-567.3664C133.4604,-559.1516 133.4604,-549.6579 133.4604,-540.7252"/>
<polygon fill="#000000" stroke="#000000" points="136.9605,-540.6068 133.4604,-530.6068 129.9605,-540.6069 136.9605,-540.6068"/>
</g>
<!-- 112507779112 -->
<g id="node7" class="node">
<title>112507779112</title>
<polygon fill="none" stroke="#000000" points="15.1758,-405.5 15.1758,-449.5 251.7451,-449.5 251.7451,-405.5 15.1758,-405.5"/>
<text text-anchor="middle" x="67.3018" y="-423.3" font-family="Times,serif" font-size="14.00" fill="#000000">dense_5: Dense</text>
<polyline fill="none" stroke="#000000" points="119.4277,-405.5 119.4277,-449.5 "/>
<text text-anchor="middle" x="147.2622" y="-434.3" font-family="Times,serif" font-size="14.00" fill="#000000">input:</text>
<polyline fill="none" stroke="#000000" points="119.4277,-427.5 175.0967,-427.5 "/>
<text text-anchor="middle" x="147.2622" y="-412.3" font-family="Times,serif" font-size="14.00" fill="#000000">output:</text>
<polyline fill="none" stroke="#000000" points="175.0967,-405.5 175.0967,-449.5 "/>
<text text-anchor="middle" x="213.4209" y="-434.3" font-family="Times,serif" font-size="14.00" fill="#000000">(None, 80)</text>
<polyline fill="none" stroke="#000000" points="175.0967,-427.5 251.7451,-427.5 "/>
<text text-anchor="middle" x="213.4209" y="-412.3" font-family="Times,serif" font-size="14.00" fill="#000000">(None, 70)</text>
</g>
<!-- 112507162696&#45;&gt;112507779112 -->
<g id="edge7" class="edge">
<title>112507162696&#45;&gt;112507779112</title>
<path fill="none" stroke="#000000" d="M133.4604,-486.3664C133.4604,-478.1516 133.4604,-468.6579 133.4604,-459.7252"/>
<polygon fill="#000000" stroke="#000000" points="136.9605,-459.6068 133.4604,-449.6068 129.9605,-459.6069 136.9605,-459.6068"/>
</g>
<!-- 112507844928 -->
<g id="node8" class="node">
<title>112507844928</title>
<polygon fill="none" stroke="#000000" points="3.5,-324.5 3.5,-368.5 263.4209,-368.5 263.4209,-324.5 3.5,-324.5"/>
<text text-anchor="middle" x="67.3018" y="-342.3" font-family="Times,serif" font-size="14.00" fill="#000000">dropout_3: Dropout</text>
<polyline fill="none" stroke="#000000" points="131.1035,-324.5 131.1035,-368.5 "/>
<text text-anchor="middle" x="158.938" y="-353.3" font-family="Times,serif" font-size="14.00" fill="#000000">input:</text>
<polyline fill="none" stroke="#000000" points="131.1035,-346.5 186.7725,-346.5 "/>
<text text-anchor="middle" x="158.938" y="-331.3" font-family="Times,serif" font-size="14.00" fill="#000000">output:</text>
<polyline fill="none" stroke="#000000" points="186.7725,-324.5 186.7725,-368.5 "/>
<text text-anchor="middle" x="225.0967" y="-353.3" font-family="Times,serif" font-size="14.00" fill="#000000">(None, 70)</text>
<polyline fill="none" stroke="#000000" points="186.7725,-346.5 263.4209,-346.5 "/>
<text text-anchor="middle" x="225.0967" y="-331.3" font-family="Times,serif" font-size="14.00" fill="#000000">(None, 70)</text>
</g>
<!-- 112507779112&#45;&gt;112507844928 -->
<g id="edge8" class="edge">
<title>112507779112&#45;&gt;112507844928</title>
<path fill="none" stroke="#000000" d="M133.4604,-405.3664C133.4604,-397.1516 133.4604,-387.6579 133.4604,-378.7252"/>
<polygon fill="#000000" stroke="#000000" points="136.9605,-378.6068 133.4604,-368.6068 129.9605,-378.6069 136.9605,-378.6068"/>
</g>
<!-- 4986268752 -->
<g id="node9" class="node">
<title>4986268752</title>
<polygon fill="none" stroke="#000000" points="15.1758,-243.5 15.1758,-287.5 251.7451,-287.5 251.7451,-243.5 15.1758,-243.5"/>
<text text-anchor="middle" x="67.3018" y="-261.3" font-family="Times,serif" font-size="14.00" fill="#000000">dense_6: Dense</text>
<polyline fill="none" stroke="#000000" points="119.4277,-243.5 119.4277,-287.5 "/>
<text text-anchor="middle" x="147.2622" y="-272.3" font-family="Times,serif" font-size="14.00" fill="#000000">input:</text>
<polyline fill="none" stroke="#000000" points="119.4277,-265.5 175.0967,-265.5 "/>
<text text-anchor="middle" x="147.2622" y="-250.3" font-family="Times,serif" font-size="14.00" fill="#000000">output:</text>
<polyline fill="none" stroke="#000000" points="175.0967,-243.5 175.0967,-287.5 "/>
<text text-anchor="middle" x="213.4209" y="-272.3" font-family="Times,serif" font-size="14.00" fill="#000000">(None, 70)</text>
<polyline fill="none" stroke="#000000" points="175.0967,-265.5 251.7451,-265.5 "/>
<text text-anchor="middle" x="213.4209" y="-250.3" font-family="Times,serif" font-size="14.00" fill="#000000">(None, 60)</text>
</g>
<!-- 112507844928&#45;&gt;4986268752 -->
<g id="edge9" class="edge">
<title>112507844928&#45;&gt;4986268752</title>
<path fill="none" stroke="#000000" d="M133.4604,-324.3664C133.4604,-316.1516 133.4604,-306.6579 133.4604,-297.7252"/>
<polygon fill="#000000" stroke="#000000" points="136.9605,-297.6068 133.4604,-287.6068 129.9605,-297.6069 136.9605,-297.6068"/>
</g>
<!-- 112507842688 -->
<g id="node10" class="node">
<title>112507842688</title>
<polygon fill="none" stroke="#000000" points="15.1758,-162.5 15.1758,-206.5 251.7451,-206.5 251.7451,-162.5 15.1758,-162.5"/>
<text text-anchor="middle" x="67.3018" y="-180.3" font-family="Times,serif" font-size="14.00" fill="#000000">dense_7: Dense</text>
<polyline fill="none" stroke="#000000" points="119.4277,-162.5 119.4277,-206.5 "/>
<text text-anchor="middle" x="147.2622" y="-191.3" font-family="Times,serif" font-size="14.00" fill="#000000">input:</text>
<polyline fill="none" stroke="#000000" points="119.4277,-184.5 175.0967,-184.5 "/>
<text text-anchor="middle" x="147.2622" y="-169.3" font-family="Times,serif" font-size="14.00" fill="#000000">output:</text>
<polyline fill="none" stroke="#000000" points="175.0967,-162.5 175.0967,-206.5 "/>
<text text-anchor="middle" x="213.4209" y="-191.3" font-family="Times,serif" font-size="14.00" fill="#000000">(None, 60)</text>
<polyline fill="none" stroke="#000000" points="175.0967,-184.5 251.7451,-184.5 "/>
<text text-anchor="middle" x="213.4209" y="-169.3" font-family="Times,serif" font-size="14.00" fill="#000000">(None, 50)</text>
</g>
<!-- 4986268752&#45;&gt;112507842688 -->
<g id="edge10" class="edge">
<title>4986268752&#45;&gt;112507842688</title>
<path fill="none" stroke="#000000" d="M133.4604,-243.3664C133.4604,-235.1516 133.4604,-225.6579 133.4604,-216.7252"/>
<polygon fill="#000000" stroke="#000000" points="136.9605,-216.6068 133.4604,-206.6068 129.9605,-216.6069 136.9605,-216.6068"/>
</g>
<!-- 4986343944 -->
<g id="node11" class="node">
<title>4986343944</title>
<polygon fill="none" stroke="#000000" points="15.1758,-81.5 15.1758,-125.5 251.7451,-125.5 251.7451,-81.5 15.1758,-81.5"/>
<text text-anchor="middle" x="67.3018" y="-99.3" font-family="Times,serif" font-size="14.00" fill="#000000">dense_8: Dense</text>
<polyline fill="none" stroke="#000000" points="119.4277,-81.5 119.4277,-125.5 "/>
<text text-anchor="middle" x="147.2622" y="-110.3" font-family="Times,serif" font-size="14.00" fill="#000000">input:</text>
<polyline fill="none" stroke="#000000" points="119.4277,-103.5 175.0967,-103.5 "/>
<text text-anchor="middle" x="147.2622" y="-88.3" font-family="Times,serif" font-size="14.00" fill="#000000">output:</text>
<polyline fill="none" stroke="#000000" points="175.0967,-81.5 175.0967,-125.5 "/>
<text text-anchor="middle" x="213.4209" y="-110.3" font-family="Times,serif" font-size="14.00" fill="#000000">(None, 50)</text>
<polyline fill="none" stroke="#000000" points="175.0967,-103.5 251.7451,-103.5 "/>
<text text-anchor="middle" x="213.4209" y="-88.3" font-family="Times,serif" font-size="14.00" fill="#000000">(None, 40)</text>
</g>
<!-- 112507842688&#45;&gt;4986343944 -->
<g id="edge11" class="edge">
<title>112507842688&#45;&gt;4986343944</title>
<path fill="none" stroke="#000000" d="M133.4604,-162.3664C133.4604,-154.1516 133.4604,-144.6579 133.4604,-135.7252"/>
<polygon fill="#000000" stroke="#000000" points="136.9605,-135.6068 133.4604,-125.6068 129.9605,-135.6069 136.9605,-135.6068"/>
</g>
<!-- 4527663480 -->
<g id="node12" class="node">
<title>4527663480</title>
<polygon fill="none" stroke="#000000" points="15.1758,-.5 15.1758,-44.5 251.7451,-44.5 251.7451,-.5 15.1758,-.5"/>
<text text-anchor="middle" x="67.3018" y="-18.3" font-family="Times,serif" font-size="14.00" fill="#000000">dense_9: Dense</text>
<polyline fill="none" stroke="#000000" points="119.4277,-.5 119.4277,-44.5 "/>
<text text-anchor="middle" x="147.2622" y="-29.3" font-family="Times,serif" font-size="14.00" fill="#000000">input:</text>
<polyline fill="none" stroke="#000000" points="119.4277,-22.5 175.0967,-22.5 "/>
<text text-anchor="middle" x="147.2622" y="-7.3" font-family="Times,serif" font-size="14.00" fill="#000000">output:</text>
<polyline fill="none" stroke="#000000" points="175.0967,-.5 175.0967,-44.5 "/>
<text text-anchor="middle" x="213.4209" y="-29.3" font-family="Times,serif" font-size="14.00" fill="#000000">(None, 40)</text>
<polyline fill="none" stroke="#000000" points="175.0967,-22.5 251.7451,-22.5 "/>
<text text-anchor="middle" x="213.4209" y="-7.3" font-family="Times,serif" font-size="14.00" fill="#000000">(None, 13)</text>
</g>
<!-- 4986343944&#45;&gt;4527663480 -->
<g id="edge12" class="edge">
<title>4986343944&#45;&gt;4527663480</title>
<path fill="none" stroke="#000000" d="M133.4604,-81.3664C133.4604,-73.1516 133.4604,-63.6579 133.4604,-54.7252"/>
<polygon fill="#000000" stroke="#000000" points="136.9605,-54.6068 133.4604,-44.6068 129.9605,-54.6069 136.9605,-54.6068"/>
</g>
<!-- 112499314816 -->
<g id="node13" class="node">
<title>112499314816</title>
<polygon fill="none" stroke="#000000" points="83.7168,-972.5 83.7168,-1008.5 183.2041,-1008.5 183.2041,-972.5 83.7168,-972.5"/>
<text text-anchor="middle" x="133.4604" y="-986.3" font-family="Times,serif" font-size="14.00" fill="#000000">112499314816</text>
</g>
<!-- 112499314816&#45;&gt;112499316552 -->
<g id="edge1" class="edge">
<title>112499314816&#45;&gt;112499316552</title>
<path fill="none" stroke="#000000" d="M133.4604,-972.2521C133.4604,-964.3888 133.4604,-954.9498 133.4604,-945.9612"/>
<polygon fill="#000000" stroke="#000000" points="136.9605,-945.7376 133.4604,-935.7377 129.9605,-945.7377 136.9605,-945.7376"/>
</g>
</g>
</svg>
